<svg width="181" height="181" viewBox="0 0 181 181" fill="none" xmlns="http://www.w3.org/2000/svg">
<path d="M90.2763 41.4224C62.6655 41.4224 40.2761 63.8078 40.2761 91.4226C40.2761 113.514 54.6027 132.256 74.4694 138.868C76.9682 139.331 77.8858 137.783 77.8858 136.463C77.8858 135.27 77.8391 131.331 77.8179 127.153C63.9074 130.178 60.9723 121.254 60.9723 121.254C58.6978 115.475 55.4207 113.938 55.4207 113.938C50.8844 110.835 55.7626 110.898 55.7626 110.898C60.7836 111.251 63.4275 116.051 63.4275 116.051C67.8869 123.695 75.1243 121.485 77.9775 120.208C78.4261 116.976 79.7222 114.77 81.1519 113.522C70.0464 112.257 58.3716 107.97 58.3716 88.8113C58.3716 83.3526 60.3248 78.892 63.5235 75.3906C63.0043 74.131 61.293 69.0457 64.0078 62.1585C64.0078 62.1585 68.2065 60.8146 77.7615 67.2838C81.7496 66.1756 86.0271 65.6203 90.2763 65.6015C94.5256 65.6203 98.8062 66.1756 102.802 67.2838C112.346 60.8146 116.539 62.1585 116.539 62.1585C119.26 69.0457 117.548 74.131 117.029 75.3906C120.234 78.892 122.174 83.3523 122.174 88.8113C122.174 108.015 110.478 112.244 99.3438 113.482C101.137 115.033 102.735 118.077 102.735 122.741C102.735 129.431 102.677 134.816 102.677 136.463C102.677 137.793 103.577 139.352 106.112 138.861C125.968 132.242 140.276 113.507 140.276 91.4226C140.276 63.8078 117.89 41.4224 90.2763 41.4224Z" fill="white"/>
<path d="M59.0028 112.649C58.893 112.897 58.5016 112.972 58.1459 112.801C57.7832 112.638 57.5793 112.299 57.6969 112.05C57.8048 111.794 58.1961 111.723 58.5581 111.895C58.9216 112.058 59.1286 112.399 59.0028 112.649ZM61.4623 114.843C61.2239 115.064 60.7576 114.962 60.4411 114.612C60.1141 114.264 60.0529 113.798 60.2949 113.573C60.5408 113.352 60.9929 113.456 61.3207 113.805C61.6478 114.157 61.7113 114.62 61.4619 114.844L61.4623 114.843ZM63.1497 117.651C62.843 117.864 62.3419 117.664 62.0325 117.22C61.7262 116.775 61.7262 116.242 62.0391 116.028C62.3497 115.815 62.843 116.007 63.1567 116.448C63.4626 116.9 63.4626 117.433 63.1493 117.651L63.1497 117.651ZM66.0029 120.903C65.7288 121.205 65.1453 121.124 64.7179 120.712C64.281 120.309 64.1591 119.736 64.434 119.434C64.7112 119.131 65.2982 119.216 65.7288 119.625C66.1629 120.028 66.2955 120.604 66.0033 120.903H66.0029ZM69.6906 122.001C69.5703 122.392 69.0079 122.57 68.4417 122.404C67.8762 122.233 67.506 121.774 67.6201 121.378C67.7378 120.984 68.3025 120.799 68.873 120.977C69.4377 121.147 69.8087 121.603 69.691 122.001H69.6906ZM73.8881 122.467C73.9023 122.879 73.4219 123.221 72.8274 123.228C72.2294 123.241 71.7459 122.908 71.7396 122.502C71.7396 122.086 72.209 121.747 72.8066 121.737C73.4011 121.725 73.8881 122.057 73.8881 122.467ZM78.0111 122.309C78.0825 122.711 77.6692 123.124 77.079 123.234C76.4986 123.34 75.9614 123.092 75.8873 122.693C75.8151 122.28 76.2363 121.867 76.8155 121.76C77.4069 121.658 77.9359 121.9 78.0111 122.309Z" fill="white"/>
</svg>
